<?xml version="1.0" encoding="utf-8"?>
<!-- Generator: Adobe Illustrator 27.3.1, SVG Export Plug-In . SVG Version: 6.00 Build 0)  -->
<svg version="1.1" id="Layer_1" xmlns="http://www.w3.org/2000/svg" xmlns:xlink="http://www.w3.org/1999/xlink" x="0px" y="0px"
	 viewBox="0 0 1000 600" style="enable-background:new 0 0 1000 600;" xml:space="preserve">
<style type="text/css">
	.st0{clip-path:url(#SVGID_00000056418697730519226770000013707106187868839605_);}
	.st1{fill:#EAF9F3;}
	.st2{fill:#FFFFFF;filter:url(#Adobe_OpacityMaskFilter);}
	.st3{mask:url(#mask0_7_8_00000154417375836210386690000001259423723471264175_);}
	.st4{fill:none;stroke:#B8D8C7;stroke-width:1.8;stroke-linecap:round;stroke-linejoin:round;}
	.st5{fill:#B8D8C7;}
	.st6{fill:#63737A;}
	.st7{fill:#22272E;}
	.st8{fill:#6DAFA7;}
	.st9{fill:#FFE779;}
	.st10{fill:#F4C2C9;}
	.st11{fill:none;stroke:#63737A;stroke-width:1.8;stroke-linecap:round;stroke-linejoin:round;}
	.st12{fill:#282828;}
	.st13{fill:none;stroke:#282828;stroke-width:1.8;stroke-linecap:round;stroke-linejoin:round;}
	.st14{fill:#F8AB5D;}
	.st15{fill:none;stroke:#6DAFA7;stroke-width:1.8;stroke-linecap:round;stroke-linejoin:round;}
	.st16{fill:#A97C50;}
	.st17{fill:#8B5E3C;}
	.st18{fill:none;stroke:#FFFFFF;stroke-width:1.8;stroke-linecap:round;stroke-linejoin:round;}
	.st19{fill:#FFFFFF;filter:url(#Adobe_OpacityMaskFilter_00000057125948747825064740000003771976183417674155_);}
	.st20{mask:url(#mask1_7_8_00000092452685898362054580000016939490263988274335_);}
	.st21{fill:none;stroke:#F8AB5D;stroke-width:1.8;stroke-linecap:round;stroke-linejoin:round;}
	.st22{fill:#754C29;}
	.st23{fill:none;stroke:#F4C2C9;stroke-width:1.8;stroke-linecap:round;stroke-linejoin:round;}
	.st24{fill:none;stroke:#22272E;stroke-width:1.8;stroke-linecap:round;stroke-linejoin:round;}
	.st25{fill:#FFFFFF;}
	.st26{fill:none;stroke:#8B5E3C;stroke-width:1.8;stroke-linecap:round;stroke-linejoin:round;}
</style>
<g>
	<defs>
		<rect id="SVGID_1_" x="-174.1" y="80.8" width="1031.9" height="483.5"/>
	</defs>
	<clipPath id="SVGID_00000169548172953045971720000010913938628393244321_">
		<use xlink:href="#SVGID_1_"  style="overflow:visible;"/>
	</clipPath>
	<g style="clip-path:url(#SVGID_00000169548172953045971720000010913938628393244321_);">
		<path class="st1" d="M556.1,485.7l-440-13.4c-20.5-0.6-37.3-17.3-39.4-38.9L55.5,210.3c-2.4-25.3,16.1-47.3,39.9-47.7l489.8-7.2
			c24.7-0.4,44.1,22.6,41,48.7l-28.5,243.7C595.1,470,577.1,486.5,556.1,485.7z">
		<defs>
			<filter id="Adobe_OpacityMaskFilter" filterUnits="userSpaceOnUse" x="-174.3" y="194.5" width="1032.2" height="352.7">
				<feColorMatrix  type="matrix" values="1 0 0 0 0  0 1 0 0 0  0 0 1 0 0  0 0 0 1 0">
			</filter>
		</defs>
		
			<mask maskUnits="userSpaceOnUse" x="-174.3" y="194.5" width="1032.2" height="352.7" id="mask0_7_8_00000154417375836210386690000001259423723471264175_">
			<path class="st2" d="M556.1,485.7l-440-13.4c-20.5-0.6-37.3-17.3-39.4-38.9L55.5,210.3c-2.4-25.3,16.1-47.3,39.9-47.7l489.8-7.2
				c24.7-0.4,44.1,22.6,41,48.7l-28.5,243.7C595.1,470,577.1,486.5,556.1,485.7z"/>
		</mask>
		<g class="st3">
			<path class="st4" d="M492.7,546.3h351.6c7,0,12.7-6,12.7-13.5V320.9c0-7.5-5.7-13.5-12.7-13.5H492.7c-7,0-12.7,6-12.7,13.5v211.9
				C480,540.2,485.8,546.3,492.7,546.3z"/>
			<path class="st4" d="M28,532.1h354.7c7,0,12.7-6,12.7-13.5V208.9c0-7.5-5.7-13.5-12.7-13.5H28c-7,0-12.7,6-12.7,13.5v309.7
				C15.4,526,21.1,532.1,28,532.1z"/>
			<path class="st4" d="M511.8,307.3H529c1.9,0,3.4-1.4,3.6-3.4l1.3-13c0.3-2.2-1.4-4.3-3.6-4.3h-19.9c-2.2,0-3.8,2-3.6,4.3l1.4,13
				C508.5,305.9,510,307.3,511.8,307.3z"/>
			<path class="st5" d="M522.4,286.7c0,0,6.8-0.7,8.1-10.4c0,0-6.1,1.9-8,6.5c0,0-0.8-10.3-5.4-11.2c0,0-2,7.6,1.2,11.4
				c0,0-2.5-4.3-8.7-4.2c0,0,1.6,6.1,7.8,7.9"/>
			<path class="st4" d="M100.8,289.6H118c1.9,0,3.4-1.4,3.6-3.4l1.4-13c0.3-2.2-1.4-4.3-3.6-4.3H99.5c-2.2,0-3.8,2-3.6,4.3l1.4,13
				C97.4,288,99,289.6,100.8,289.6z"/>
			<path class="st5" d="M111.4,268.9c0,0,6.8-0.7,8.1-10.4c0,0-6.1,1.9-8,6.5c0,0-0.8-10.3-5.4-11.2c0,0-2,7.6,1.2,11.4
				c0,0-2.5-4.3-8.7-4.2c0,0,1.6,6.1,7.8,7.9"/>
			<path class="st4" d="M495.4,352.1h76.3c1.9,0,3.6-1.7,3.6-3.8v-24.7c0-2.1-1.6-3.8-3.6-3.8h-76.3c-1.9,0-3.6,1.7-3.6,3.8v24.6
				C491.9,350.4,493.5,352.1,495.4,352.1z"/>
			<path class="st5" d="M524.8,328.6h17.6c0.7,0,1.3-0.6,1.3-1.3c0-0.7-0.6-1.3-1.3-1.3h-17.6c-0.7,0-1.3,0.6-1.3,1.3
				C523.5,328,524.1,328.6,524.8,328.6z"/>
			<path class="st4" d="M495.4,393.3h76.3c1.9,0,3.6-1.7,3.6-3.8v-24.6c0-2.1-1.6-3.8-3.6-3.8h-76.3c-1.9,0-3.6,1.7-3.6,3.8v24.6
				C491.9,391.6,493.5,393.3,495.4,393.3z"/>
			<path class="st5" d="M524.8,369.8h17.6c0.7,0,1.3-0.6,1.3-1.3c0-0.7-0.6-1.3-1.3-1.3h-17.6c-0.7,0-1.3,0.6-1.3,1.3
				C523.5,369.2,524.1,369.8,524.8,369.8z"/>
			<path class="st4" d="M103.4,422.4h76.3c1.9,0,3.6-1.7,3.6-3.8V394c0-2.1-1.6-3.8-3.6-3.8h-76.3c-1.9,0-3.6,1.7-3.6,3.8v24.6
				C99.9,420.7,101.5,422.4,103.4,422.4z"/>
			<path class="st5" d="M132.9,398.9h17.6c0.7,0,1.3-0.6,1.3-1.3c0-0.7-0.6-1.3-1.3-1.3h-17.6c-0.7,0-1.3,0.6-1.3,1.3
				C131.6,398.3,132.1,398.9,132.9,398.9z"/>
			<path class="st4" d="M201.4,422.4h76.3c1.9,0,3.6-1.7,3.6-3.8V394c0-2.1-1.6-3.8-3.6-3.8h-76.3c-1.9,0-3.6,1.7-3.6,3.8v24.6
				C197.9,420.7,199.5,422.4,201.4,422.4z"/>
			<path class="st5" d="M230.9,398.9h17.6c0.7,0,1.3-0.6,1.3-1.3c0-0.7-0.6-1.3-1.3-1.3h-17.6c-0.7,0-1.3,0.6-1.3,1.3
				C229.6,398.3,230.1,398.9,230.9,398.9z"/>
			<path class="st4" d="M592.7,352.1h76.3c1.9,0,3.6-1.7,3.6-3.8v-24.7c0-2.1-1.6-3.8-3.6-3.8h-76.3c-1.9,0-3.6,1.7-3.6,3.8v24.6
				C589.2,350.4,590.8,352.1,592.7,352.1z"/>
			<path class="st5" d="M622.1,328.6h17.6c0.7,0,1.3-0.6,1.3-1.3c0-0.7-0.6-1.3-1.3-1.3h-17.6c-0.7,0-1.3,0.6-1.3,1.3
				C620.8,328,621.4,328.6,622.1,328.6z"/>
			<path class="st4" d="M592.7,393.3h76.3c1.9,0,3.6-1.7,3.6-3.8v-24.6c0-2.1-1.6-3.8-3.6-3.8h-76.3c-1.9,0-3.6,1.7-3.6,3.8v24.6
				C589.2,391.6,590.8,393.3,592.7,393.3z"/>
			<path class="st5" d="M622.1,369.8h17.6c0.7,0,1.3-0.6,1.3-1.3c0-0.7-0.6-1.3-1.3-1.3h-17.6c-0.7,0-1.3,0.6-1.3,1.3
				C620.8,369.2,621.4,369.8,622.1,369.8z"/>
			<path class="st4" d="M-7.7,289.7h385c2.1,0,3.9-1.9,3.9-4.1v-71.7c0-2.2-1.8-4.1-3.9-4.1h-385c-2.1,0-3.9,1.9-3.9,4.1v71.7
				C-11.6,287.9-9.8,289.7-7.7,289.7z"/>
			<path class="st4" d="M-7.7,378.7h385c2.1,0,3.9-1.9,3.9-4.1v-71.7c0-2.2-1.8-4.1-3.9-4.1h-385c-2.1,0-3.9,1.9-3.9,4.1v71.7
				C-11.6,376.8-9.8,378.7-7.7,378.7z"/>
			<path class="st4" d="M355.4,244.5H347v45.2h8.4V244.5z"/>
			<path class="st4" d="M347,256.7h-8.7v32.9h8.7V256.7z"/>
			<path class="st4" d="M102.9,333.3h-8.4v45.2h8.4V333.3z"/>
			<path class="st4" d="M94.5,345.6h-8.7v32.9h8.7V345.6z"/>
			<path class="st4" d="M119.9,333.3h-8.4v45.2h8.4V333.3z"/>
			<path class="st4" d="M127.8,332.4l-8,2.7l12.8,43.1l8-2.7L127.8,332.4z"/>
			<path class="st4" d="M111.6,345.6h-8.7v32.9h8.7V345.6z"/>
			<path class="st5" d="M279.9,250.4L279,237c-0.1-0.9,0.6-1.6,1.4-1.6h7.3c0.8,0,1.4,0.7,1.4,1.6l-0.9,13.4c0,0,7.6,5.2,7.5,9.5
				c-0.1,3.3-1.9,19.2-2.8,26.3c-0.3,2-1.8,3.4-3.6,3.4h-10.5c-1.9,0-3.4-1.4-3.6-3.4c-0.8-7-2.7-22.9-2.8-26.3
				C272.3,255.6,279.9,250.4,279.9,250.4z"/>
			<path class="st5" d="M242.5,250.4l-0.9-13.4c-0.1-0.9,0.6-1.6,1.4-1.6h7.3c0.8,0,1.4,0.7,1.4,1.6l-0.9,13.4c0,0,7.6,5.2,7.5,9.5
				c-0.1,3.3-1.9,19.2-2.8,26.3c-0.3,2-1.8,3.4-3.6,3.4h-10.5c-1.9,0-3.4-1.4-3.6-3.4c-0.8-7-2.7-22.9-2.8-26.3
				C234.9,255.6,242.5,250.4,242.5,250.4z"/>
			<path class="st4" d="M616.1,463.6h-789.5"/>
		</g>
		<path class="st4" d="M266.3,378.7h-70.4c-2.3,0-4.1-2-4.1-4.4v-11.8c0-2.4,1.9-4.4,4.1-4.4h70.4c2.3,0,4.1,2,4.1,4.4v11.8
			C270.5,376.7,268.6,378.7,266.3,378.7z"/>
		<path class="st4" d="M256.4,339.1h-50.8V358h50.8V339.1z"/>
		<path class="st5" d="M199.8,366.3c0.7,0,1.3-0.6,1.3-1.3c0-0.7-0.6-1.3-1.3-1.3c-0.7,0-1.3,0.6-1.3,1.3
			C198.5,365.7,199,366.3,199.8,366.3z"/>
		<path class="st6" d="M275.2,358.5l35.7-14.1c1.4-0.5,2.3-2,2.3-3.5l-70.9-5.4l10.9,20.9l18.4,2.6
			C272.8,359.1,274.1,358.9,275.2,358.5z"/>
		<path class="st7" d="M185.3,344.7l-6.4-53.3c-0.2-1.5,1-2.8,2.4-2.7l85.8,6.5c1.3,0.1,2.3,1.2,2.4,2.5l5.1,58.7
			c0.2,1.5-1.1,2.8-2.5,2.6l-84.5-11.9C186.3,346.9,185.4,345.9,185.3,344.7z"/>
		<path class="st7" d="M313.1,340.9c0,1.6-0.9,3-2.3,3.5l-35.7,14.1c-0.8,0.4-1.9,0.5-2.8,0.4c-1.4-1.1-2.2-2.8-2.2-2.8L313.1,340.9
			z"/>
		<path class="st6" d="M226.3,327c2.3-1.8,2.5-5.5,0.6-8.3c-1.9-2.8-5.3-3.6-7.6-1.9c-2.3,1.8-2.5,5.5-0.6,8.3
			C220.6,328,224,328.8,226.3,327z"/>
		<path class="st6" d="M270.2,248.9l-143,23c-3.2,0.5-6.1-2-6.3-5.4l-8.5-136.9c-0.3-3.8,2.7-6.9,6.3-6.7l143.3,9.7
			c2.7,0.2,4.9,2.4,5.2,5.3l8.2,104.2C275.5,245.4,273.3,248.4,270.2,248.9z"/>
		<path class="st7" d="M274.1,248.7l-143.7,23.1c-3.2,0.5-6.1-2-6.3-5.4l-8.6-137.5c-0.3-3.8,2.7-7,6.3-6.7l143.9,9.7
			c2.7,0.2,4.9,2.4,5.2,5.4l8.3,104.7C279.5,245.3,277.3,248.3,274.1,248.7z"/>
		<path class="st8" d="M180.5,201.6L140,204c-1.3,0.1-2.4-1-2.5-2.3l-2.4-36.3c-0.1-1.4,1-2.7,2.4-2.7l40.5,0.3c1.3,0,2.3,1,2.4,2.3
			l2.4,33.7C182.8,200.4,181.8,201.5,180.5,201.6z"/>
		<path class="st9" d="M224,187.6l-33.8,1.3c-1.3,0.1-2.4-1-2.5-2.3l-1.4-21c-0.1-1.4,1-2.7,2.4-2.7l33.8,0.3c1.2,0,2.2,1,2.4,2.3
			l1.4,19.4C226.3,186.3,225.3,187.6,224,187.6z"/>
		<path class="st10" d="M262.3,186.2l-28.5,1.1c-1.3,0.1-2.4-1-2.5-2.3l-1.4-19c-0.1-1.4,1-2.7,2.4-2.7l28.5,0.2
			c1.2,0,2.2,1,2.4,2.3l1.4,17.7C264.7,184.9,263.6,186.1,262.3,186.2z"/>
		<path class="st11" d="M183,236.9l-40.5,4.7c-1.4,0.2-2.5-0.9-2.6-2.3l-1.5-23.5c-0.1-1.3,0.9-2.6,2.2-2.7l40.5-2.9
			c1.3-0.1,2.5,0.9,2.5,2.3l1.5,21.7C185.2,235.5,184.3,236.7,183,236.9z"/>
		<path class="st10" d="M227.8,236l-33.8,4.2c-1.4,0.2-2.5-0.9-2.6-2.3l-2.7-38.8c-0.1-1.4,0.9-2.6,2.2-2.7l33.8-1.7
			c1.3-0.1,2.4,1,2.5,2.3l2.7,36.2C230,234.6,229,235.8,227.8,236z"/>
		<path class="st8" d="M220.7,201.4l-24.3,1.5c-0.6,0-1,0.5-0.9,1.2l1.1,16c0.1,0.6,0.5,1.1,1.1,1l24.3-2.2c0.6-0.1,1-0.5,0.9-1.2
			l-1.1-15.3C221.8,201.9,221.2,201.4,220.7,201.4z"/>
		<path class="st9" d="M265.7,227.1l-28.5,3.3c-1.4,0.2-2.5-0.9-2.6-2.3l-2.3-31.2c-0.1-1.4,0.9-2.6,2.2-2.7l28.5-1.4
			c1.3-0.1,2.4,1,2.5,2.3l2.3,29.3C267.9,225.7,266.9,226.9,265.7,227.1z"/>
		<path class="st11" d="M162.3,222l0.5,6.7"/>
		<path class="st11" d="M159.6,225.6l5.9-0.5"/>
		<path class="st12" d="M202.9,229.4c-0.2-1.8-1.4-3.2-3-3.1c-1.5,0.2-2.7,1.8-2.5,3.7c0.2,1.9,1.5,3.2,3,3.1
			C201.9,232.8,203,231.2,202.9,229.4z"/>
		<path class="st13" d="M207.8,228.9l15.8-1.7"/>
		<path class="st8" d="M243,202.6c-0.2-1.7-1.3-3-2.6-3c-1.4,0.1-2.3,1.5-2.2,3.2c0.2,1.7,1.3,3.1,2.6,3
			C242.2,205.8,243.2,204.3,243,202.6z"/>
		<path class="st13" d="M247.3,202.3l13.6-0.9"/>
		<path class="st8" d="M243.8,212.2c-0.2-1.7-1.3-3-2.6-2.9c-1.4,0.1-2.3,1.6-2.2,3.3c0.2,1.7,1.4,3.1,2.6,2.9
			C242.9,215.4,243.9,213.9,243.8,212.2z"/>
		<path class="st13" d="M248,211.9l13.7-1.2"/>
		<path class="st8" d="M244.5,221.9c-0.2-1.7-1.3-3-2.6-2.9c-1.4,0.1-2.3,1.6-2.2,3.3c0.2,1.7,1.4,3,2.6,2.9
			C243.7,225,244.6,223.6,244.5,221.9z"/>
		<path class="st13" d="M248.7,221.4l13.6-1.4"/>
		<path class="st9" d="M149.3,177.2l-5.5,0.1c-0.5,0-0.9-0.4-1-1l-0.4-6.1c0-0.6,0.4-1.1,1-1.1h5.5c0.5,0,0.9,0.4,1,1l0.4,6
			C150.2,176.6,149.8,177.2,149.3,177.2z"/>
		<path class="st13" d="M155.2,169.1l19-0.1"/>
		<path class="st13" d="M155.6,174.3l19-0.2"/>
		<path class="st12" d="M240.6,175.7l-4.3,0.1c-0.3,0-0.5-0.3-0.6-0.5l-0.4-5.8c0-0.4,0.3-0.6,0.6-0.6h4.3c0.3,0,0.5,0.3,0.6,0.5
			l0.4,5.8C241.2,175.4,241,175.7,240.6,175.7z"/>
		<path class="st13" d="M244.7,168.7h14.1"/>
		<path class="st13" d="M245.1,173.3l14-0.2"/>
		<path class="st13" d="M236.1,180.7l23.5-0.6"/>
		<path class="st9" d="M150.2,191.1l-5.5,0.2c-0.5,0-1-0.4-1-1l-0.4-6.1c0-0.6,0.4-1.1,0.9-1.1l5.5-0.2c0.5,0,0.9,0.5,1,1l0.4,6
			C151.2,190.6,150.8,191.1,150.2,191.1z"/>
		<path class="st13" d="M156.2,182.8l19-0.5"/>
		<path class="st13" d="M156.5,188.1l19-0.6"/>
		<path class="st8" d="M164.1,147.6l-28.5-0.9c-0.9,0-1.7-0.8-1.8-1.8l-0.3-4.8c-0.1-1.2,0.8-2.2,1.9-2.1l28.5,1.3
			c0.9,0,1.7,0.8,1.8,1.8l0.3,4.4C166.1,146.6,165.2,147.6,164.1,147.6z"/>
		<path class="st13" d="M193,168.9l26.9-0.1"/>
		<path class="st13" d="M193.3,173.9l26.9-0.4"/>
		<path class="st13" d="M193.8,181.8l14.5-0.4"/>
		<path class="st6" d="M261.4,147.1c-0.1-1.3-1-2.5-2.1-2.6c-1-0.1-1.9,1.1-1.7,2.4c0.1,1.4,1,2.6,2.1,2.6
			C260.8,149.6,261.5,148.5,261.4,147.1z"/>
		<path class="st6" d="M253.9,146.8c-0.1-1.4-1.1-2.6-2.1-2.6c-1.1-0.1-1.9,1.1-1.8,2.5c0.1,1.4,1.1,2.6,2.2,2.6
			C253.2,149.4,254,148.2,253.9,146.8z"/>
		<path class="st6" d="M246.1,146.5c-0.1-1.4-1.1-2.6-2.2-2.7c-1.1-0.1-1.9,1.1-1.9,2.5c0.1,1.4,1.1,2.6,2.2,2.7
			C245.4,149.1,246.2,147.9,246.1,146.5z"/>
		<path class="st14" d="M295.8,158.9l-37.6-0.7c-1.5,0-2.8-1.3-2.9-2.9l-3.4-44c-0.1-1.5,1.1-2.7,2.5-2.6l37.7,4.2
			c1.4,0.2,2.5,1.3,2.6,2.9l3.3,40.4C298.2,157.7,297.2,158.9,295.8,158.9z"/>
		<path class="st9" d="M297.8,158.2l-37.6-0.7c-1.5,0-2.8-1.3-2.9-2.9l-3.4-44c-0.1-1.5,1.1-2.7,2.5-2.6l37.7,4.2
			c1.4,0.2,2.5,1.3,2.6,2.9l3.3,40.4C300.2,157,299.1,158.2,297.8,158.2z"/>
		<path class="st11" d="M270.4,116.2l19.9,2"/>
		<path class="st11" d="M270.8,120.5l19.9,1.8"/>
		<path class="st11" d="M271.5,130.4l20,1.4"/>
		<path class="st11" d="M271.9,134.6l19.9,1.3"/>
		<path class="st11" d="M272.7,144.6l19.9,0.9"/>
		<path class="st11" d="M273,148.8l19.9,0.7"/>
		<path class="st15" d="M263.6,118.6l1,1.3l1.4-2.1"/>
		<path class="st15" d="M264.7,133l1,1.3l1.5-2.1"/>
		<path class="st15" d="M265.8,147.1l1.1,1.3l1.4-2.2"/>
		<path class="st16" d="M313.7,222.1c0,0-5.2,11.6-5.7,19c-0.4,7.4,6.9,37,19,59.5c0,0,11.3-4,11.3-7.6c0-3.7-6.7-47.3-6.3-48.6
			c0.4-1.3,5.1-10.5,5.1-14.5C337.1,226.1,315.4,217.8,313.7,222.1z"/>
		<path class="st17" d="M337.1,229.9c0-4-21.6-12.1-23.4-7.8c0,0-0.7,1.6-1.6,4c6.9,5.7,14.2,10.5,22.6,12.1
			C335.9,235.3,337.1,231.9,337.1,229.9z"/>
		<path class="st8" d="M336.2,172.8c0,0-8.5,3.1-14.9,18.5c-6.5,15.6-13.3,28.4-13.3,28.4s10.6,11.2,24.1,16.8
			C345.6,242.4,346.2,174.3,336.2,172.8z"/>
		<path class="st13" d="M310.4,215.2c0,0,14.5,12.6,27.9,18.1"/>
		<path class="st16" d="M364.4,508.3c0,0-0.8,18.9-0.6,20.7c0.2,1.9-5.9,5.7-13.5,5.4c-7.4-0.3-8.2-2.6-8.2-2.6s-1.7-20.4-1.9-23.3
			C340.1,505.6,362.9,504.4,364.4,508.3z"/>
		<path class="st7" d="M364,519.2c0.2-5.4,0.4-10.9,0.4-10.9c-1.5-3.9-24.3-2.7-24.1,0.2c0.1,1.3,0.5,6.4,0.8,11.4
			C347.8,523.4,356.6,522.5,364,519.2z"/>
		<path class="st7" d="M363.8,528.5c0,0,0.7,5.3,0.9,11.1c0.3,5.8,1.1,16.3,0.2,18.1c-1,1.8-6.1,3.3-18.2,4.3
			c-12.1,1-23.3,0.1-25.2-1.5c-1.9-1.6-1.4-4,0.5-5.9c1.9-1.9,9.2-10.3,12.3-13.7c4-4.5,6.9-9.1,6.9-9.6c0.3-2.2,0.7-2.2,0.7-2.2
			s0.5,1.3,1.2,1.3c0.7-0.1,1.6-4.1,5.7-3.1c4.1,1,5.8,4,7.3,4C357.5,531,361.6,530.4,363.8,528.5z"/>
		<path class="st16" d="M396.2,512.1c0,0,2.3,19.4,2.7,20.6c0.4,1.2,4.7,4.4,11.3,4c6.6-0.4,9.1-2.4,9.4-2.9
			c0.3-0.5-0.2-22.7-0.3-24.1C419,508.3,397.7,508.7,396.2,512.1z"/>
		<path class="st7" d="M419.4,519.7c-0.1-4.9-0.3-9.5-0.3-10.2c-0.3-1.4-21.4-1-23,2.4c0,0,0.5,4.3,1.1,9
			C404.8,522.9,412.4,522.3,419.4,519.7z"/>
		<path class="st7" d="M398.5,531c-0.2,1.4-0.3,2.8-0.2,4.2c0.1,1.2,0.2,2.8,0.2,4.8c0.1,4.1,0.4,18.4,1.4,20.5
			c0.9,2.1,11.6,3.8,19.6,3.9c8,0.1,14-2.2,14.9-4.5c0.9-2.3,0.4-5.8-2.4-9.5c-2.8-3.8-9.2-9.6-10-12.4c-0.8-2.8-1.9-6-2.5-6.9
			c0,0-1.1,1.6-2.3,2c-1.1,0.4-2.7-4.5-6.2-4.7c-3.5-0.3-5,1.3-7.2,4.7C403.9,533,400.8,533.2,398.5,531z"/>
		<path class="st7" d="M324.3,277.5c0,0-2,9.8-3,23c-1,13.2,2.5,95.2,3,101.5c0.5,6.4,2.5,42.8,4.7,60.5c1.8,14.6,0.5,44,4.7,48.1
			c4.1,4.1,16.8,6.4,24.7,4.1c7.9-2.2,11.5-6.4,12.4-9.8c0.9-3.4-2.8-29.4-2.5-42.6c0.3-13.2,0-52.3-0.4-61.5c0,0,3.5-47.3,7.6-58.1
			c4.1-10.8,10.2-50.5-1.4-62.1C362.4,269.3,325.3,275.6,324.3,277.5z"/>
		<path class="st7" d="M342.9,282.7c0,0-0.1,17.8,0.6,31.1c0.3,5,0.7,9.4,1.3,12.1c2.1,9.4,6.7,10.1,10.2,12.2
			c3.5,2.2,15.9,55.1,21,68.9c0,0,3.9,31.7,6.9,50.5c3,18.9,2.5,41.7,4.8,49.6c2.3,7.8,15.7,9.4,22.2,8.7c6.5-0.6,15.2-3.3,15-11.4
			c-0.3-8.1-1.5-31.1-2.6-50.7c-1.2-19.6-3.2-48.8-3.7-55.7c0,0-2.5-32.4-3.9-49c-1.4-16.6-0.6-33.6-2.6-62.3
			C409.7,257.9,342.8,266.7,342.9,282.7z"/>
		<path class="st11" d="M343.4,313.9c0.3,5,0.7,9.4,1.3,12.1c2.1,9.4,6.7,10.1,10.2,12.2c3.5,2.2,15.9,55.1,21,68.9"/>
		<path class="st11" d="M354.9,338.1c0,0-9.9-5.4-14.3-3.4"/>
		<path class="st11" d="M344.6,521.3c0,0-0.2-1.9,0-2.7"/>
		<path class="st11" d="M351.7,522.4v-3.9"/>
		<path class="st11" d="M360.2,520.6c0,0,0.1-2.2,0-3.2"/>
		<path class="st11" d="M400.8,521.8c0,0-0.4-2.4-0.4-3.1"/>
		<path class="st11" d="M409.3,522.2c0,0,0.2-3.1,0-3.9"/>
		<path class="st11" d="M416.6,520.7c0,0,0.2-2.1,0-3.1"/>
		<path class="st18" d="M336.7,539.4c0,0,6.4-5.5,19,2.1"/>
		<path class="st18" d="M331.8,546.4c0,0,8-6.7,19.8,1.4"/>
		<path class="st18" d="M424,543.4c0,0-7.7-3.6-18.1,2.2"/>
		<path class="st18" d="M427.5,549.5c0,0-8.9-4.1-19.6,3.3"/>
		<path class="st9" d="M377.1,169.7c0,0,4.2,1.3,13.2,1.5c9,0.2,19.2,3,23.2,8.3c4,5.3,5.2,44.4,4.7,62.1
			c-0.6,17.6-12.5,44.1-12.5,44.1s-28.5,3.4-51.9,2.2c-23.4-1.3-28.9-6.7-30.5-8.4c-1.6-1.7-2.5-5.8-1.6-7.6
			c0.9-1.7,5.5-15.7,7.2-29.1c1.6-13.5-1.9-32.1-0.3-48.6c1.6-16.5,7.6-21.3,7.6-21.3s7.5-2.7,20.6-3.1
			C369.7,169.1,377.1,169.7,377.1,169.7z"/>
		<defs>
			
				<filter id="Adobe_OpacityMaskFilter_00000176023618583863267400000005269373650767142814_" filterUnits="userSpaceOnUse" x="328.6" y="158" width="93.4" height="140.5">
				<feColorMatrix  type="matrix" values="1 0 0 0 0  0 1 0 0 0  0 0 1 0 0  0 0 0 1 0"/>
			</filter>
		</defs>
		
			<mask maskUnits="userSpaceOnUse" x="328.6" y="158" width="93.4" height="140.5" id="mask1_7_8_00000092452685898362054580000016939490263988274335_">
			<path style="fill:#FFFFFF;filter:url(#Adobe_OpacityMaskFilter_00000176023618583863267400000005269373650767142814_);" d="
				M377.1,169.7c0,0,4.2,1.3,13.2,1.5c9,0.2,19.2,3,23.2,8.3c4,5.3,5.2,44.4,4.7,62.1c-0.6,17.6-12.5,44.1-12.5,44.1
				s-28.5,3.4-51.9,2.2c-23.4-1.3-28.9-6.7-30.5-8.4c-1.6-1.7-2.5-5.8-1.6-7.6c0.9-1.7,5.5-15.7,7.2-29.1
				c1.6-13.5-1.9-32.1-0.3-48.6c1.6-16.5,7.6-21.3,7.6-21.3s7.5-2.7,20.6-3.1C369.7,169.1,377.1,169.7,377.1,169.7z"/>
		</mask>
		<g class="st20">
			<path class="st21" d="M343.6,166.1c0,0-10.9,17.8-7.4,55.3c3.5,37.5-11.8,56.8-4.8,74.1"/>
			<path class="st21" d="M402.6,169.4c0,0-13.3,2.3-16.6,26.2c-3.3,23.8,5.4,55.7,3.8,73.6c-1.6,17.9-6.1,28.4-6.1,28.4"/>
			<path class="st21" d="M404,291.8c0,0,4.5-44.9,0-69.7c-4.5-24.8,5.7-46.4,17.1-43.4"/>
			<path class="st21" d="M364.8,293.7c0,0,3.7-29.1,2.5-55.2c-0.5-9.8-5.8-57.9,13.9-73.1"/>
			<path class="st21" d="M343.6,291.8c0,0,5.8-36.7,5.5-58.3s-2-67.3,8.2-74.7"/>
		</g>
		<path class="st14" d="M375.9,217.1c3,0,5.5-2.6,5.5-5.8c0-3.2-2.5-5.8-5.5-5.8s-5.5,2.6-5.5,5.8
			C370.4,214.5,372.8,217.1,375.9,217.1z"/>
		<path class="st8" d="M357.4,166.3c-2.3,0.1-4.1,1.5-5.7,3.2c-1,1.1-1.9,2.5-2.4,4.4c-3.2,16.5,1.7,36.5,8,36.3
			c7.9-0.3,18.4-15.5,26.7-32.7c3.4-7.1-3.1-12.1-6.9-12.1C374.2,165.4,362.1,166,357.4,166.3z"/>
		<path class="st16" d="M355.6,158.6c0,0-0.9,8.7-1.5,12.1c-0.6,3.3-1.9,12.1,8.5,12.6c9.4,0.5,14.5-7.2,16.3-11
			c0.6-1.2,0.8-2.4,0.8-3.7c-0.3-4-0.8-13.7-0.5-21.6C379.6,136.9,355.6,151.5,355.6,158.6z"/>
		<path class="st22" d="M374.2,159.3c-5,4.2-12.4,6.2-19.3,5.1c-0.3,2.3-0.6,4.9-0.8,6.3c-0.1,0.5-0.2,1-0.3,1.6
			C362.4,172.7,372.1,168.2,374.2,159.3z"/>
		<path class="st16" d="M347.6,131.4c0,0,0.3,6.3-0.8,13.5c-1.1,7.2-1.9,18,8.2,21c10.1,3,21.9-1.1,25.6-15.8
			c3.7-14.8,6.4-29.7-6.4-34C361.3,111.7,346.1,117.2,347.6,131.4z"/>
		<path class="st7" d="M351.9,138.6c0.3,1,0.2,2.2-0.2,3.2c-0.2,0.5-0.4,1-0.8,1.4c-0.2,0.3-0.3,0.4-0.5,0.6
			c-0.1,0.1-0.2,0.3-0.3,0.4c-0.1,0.3-0.1,0.5,0,0.8c0.1,0.4,0.3,0.7,0.6,1.1c0.5,0.7,1.3,1.3,2,1.9c-1,0.1-2-0.3-2.9-1
			c-0.4-0.4-0.8-0.8-1.1-1.4c-0.3-0.6-0.3-1.4,0-2.1c0.2-0.4,0.3-0.6,0.6-0.8c0.2-0.2,0.3-0.3,0.4-0.4c0.3-0.4,0.6-0.7,0.8-1.1
			C351.1,140.4,351.6,139.6,351.9,138.6z"/>
		<path class="st7" d="M362.2,134.2c-0.3-0.7-0.5-2.1,0.4-2.8c0.9-0.7,3-0.4,5.1,0.9c1.8,1.2,2.3,3.1,1.1,2.9
			c-1.2-0.2-2.1-0.7-3.6-0.8C363.8,134.3,362.5,134.9,362.2,134.2z"/>
		<path class="st7" d="M352.1,133.3c0.2-0.6,0.3-1.8-0.3-2.6c-0.5-0.7-1.9-0.6-3.1,0.4c-1.1,0.9-1.4,2.6-0.7,2.5
			c0.8-0.1,1.3-0.4,2.2-0.4C351.1,133.3,351.9,133.8,352.1,133.3z"/>
		<path class="st7" d="M346.2,149.4c0,0-0.1,1.1,1.4,1.3c1.4,0.2,1.6-2.1,4.1-2.4c1.5-0.2,6.9,0.3,9.1,2.4c2.2,2.2,5.2,4.7,9.6,3.2
			c4.4-1.4,7-8,7.9-17.5c0.8-8.7,3.8-0.3,3.8,1.8c0,1.4-1.3-0.6-2.8,5.2c-0.7,2.6,0,10-2.6,15.4c-2,4.1-7.7,8.4-14.9,8.9
			s-13.1-2.6-14.9-7.6C345.1,155.3,345.7,149.8,346.2,149.4z"/>
		<path class="st7" d="M349.7,140c0.7,0.1,1.3-0.4,1.4-1.2l0.1-0.7c0.1-0.7-0.4-1.3-1.1-1.4c-0.7-0.1-1.3,0.4-1.4,1.2l-0.1,0.7
			C348.5,139.3,349,139.9,349.7,140z"/>
		<path class="st7" d="M363.2,140.9c0.7,0.1,1.3-0.4,1.4-1.2l0.1-0.7c0.1-0.7-0.4-1.3-1.1-1.4c-0.7-0.1-1.3,0.4-1.4,1.2l-0.1,0.7
			C362,140.3,362.5,140.9,363.2,140.9z"/>
		<path class="st16" d="M379.2,143.5c0,0,2.3-5.4,6.3-4.8c4.1,0.7,2,12.1-5.3,12"/>
		<path class="st7" d="M385.2,142.8c-0.3-0.3-0.5-0.5-0.7-0.6c-0.3-0.1-0.2,0.1-0.3,0.2c0,0.1-0.2,0.8-0.3,1.4
			c-0.1,0.6-0.3,1.3-0.6,2c-0.2,0.4-0.3,0.7-0.7,1c-0.3,0.3-0.8,0.4-1.1,0.2c0.3-0.2,0.4-0.5,0.5-0.7c0.1-0.3,0.1-0.5,0.2-0.8
			c0.1-0.6,0.1-1.3,0.3-2c0.1-0.4,0.2-0.7,0.3-1.1c0.1-0.2,0.2-0.4,0.3-0.5c0.1-0.1,0.1-0.2,0.3-0.3c0.1-0.1,0.3-0.2,0.3-0.3
			c0.2-0.1,0.4-0.2,0.8-0.2c0.3,0.1,0.5,0.3,0.7,0.4C385.2,142,385.2,142.4,385.2,142.8z"/>
		<path class="st23" d="M355.6,154.5c0,0,2.3,1.1,4.6,0.6"/>
		<path class="st24" d="M351.5,137.4c0.4-4.5-1.5-8.4-4.3-8.7c-2.8-0.3-5.4,3.1-5.8,7.6c-0.4,4.5,1.5,8.4,4.3,8.7
			C348.5,145.3,351.1,141.9,351.5,137.4z"/>
		<path class="st24" d="M370.3,139.2c0.4-4.5-2.2-8.4-5.8-8.8c-3.6-0.4-6.8,3-7.2,7.5c-0.4,4.5,2.2,8.4,5.8,8.8
			C366.7,147,369.9,143.7,370.3,139.2z"/>
		<path class="st24" d="M351.3,138.7c0,0,1.4-2.9,6,0.5"/>
		<path class="st24" d="M370.3,139.2l9.6,2.2"/>
		<path class="st16" d="M406.9,238.5l4.5,9.6c0,0-4.7,6.8-9.8,19.8c-5.1,13-8.8,29-12.3,33.5c0,0,3.4,8.6,11.7,12.4
			c0,0,16.2-25.2,23.5-36.2c7.4-11,14.4-25,13.9-32c-0.8-10.3-8.1-25.6-8.8-29.8C428.9,211.8,407.1,226.5,406.9,238.5z"/>
		<path class="st17" d="M429.5,215.9c-0.6-4-22.4,10.6-22.6,22.6l0.7,1.3c7.7-6.2,16.3-10.4,25.6-13.4
			C431.4,221.8,429.8,217.7,429.5,215.9z"/>
		<path class="st7" d="M393.5,292.1c1.2,2.2,5.2,7.9,14.7,10.3c0.3,0.1,0.4,0.5,0.3,0.7l-4.3,6.2c-0.1,0.2-0.3,0.2-0.5,0.2
			c-10.6-3.4-13.4-9.1-13.8-10.2c-0.1-0.1-0.1-0.3,0-0.4l2.9-6.7C392.9,291.7,393.4,291.7,393.5,292.1z"/>
		<path class="st25" d="M399.6,303.1c1.2-2,0.6-4.7-1.2-5.8c-1.8-1.2-4.3-0.5-5.4,1.5c-1.2,2-0.6,4.7,1.2,5.8
			C396,305.8,398.4,305.1,399.6,303.1z"/>
		<path class="st8" d="M409.4,178.8c2-0.4,4.1,0.5,5.3,2.2c1.9,2.6,5.2,7.6,9.1,16.3c6.7,14.5,11.3,24,11.3,24s-23.2,13.3-28.3,17.3
			c0,0-9.4-16.8-12.4-23.8C391.5,208,392.4,182.1,409.4,178.8z"/>
		<path class="st13" d="M404,233.3c0,0,12.7-10.1,28.5-17.4"/>
		<path class="st11" d="M386,295.5c0,0,4,15.7,20.3,21.2"/>
		<path class="st26" d="M411.4,248.1c0,0,2.2-3.1,6.9-4.2"/>
		<path class="st6" d="M536.8,270.6l-74.9-9.8c-2.5-0.4-4.1-2.6-3.9-5.2l8-79c0.3-3.1,2.5-5.5,5.4-5.9l77.5-11.2
			c2.9-0.4,5.4,2.2,5.1,5.3L542.5,266C542.1,268.9,539.6,271,536.8,270.6z"/>
		<path class="st7" d="M534.3,270.3l-74.9-9.9c-2.5-0.4-4.1-2.6-3.9-5.2l8-79c0.3-3.1,2.5-5.5,5.4-5.9l77.5-11.2
			c2.9-0.5,5.4,2.2,5.1,5.3l-11.5,101.2C539.6,268.5,537.1,270.7,534.3,270.3z"/>
		<path class="st8" d="M531.5,196.9l-58.6,3.1c-1,0.1-1.9-0.9-1.7-1.9l1.4-13.9c0.1-0.8,0.7-1.4,1.4-1.5l59.2-6.2
			c1-0.1,1.9,0.8,1.8,2l-1.9,17.1C533,196.2,532.3,196.8,531.5,196.9z"/>
		<path class="st24" d="M487.8,187.6l38.8-3.3"/>
		<path class="st24" d="M487.3,192.9l20.9-1.5"/>
		<path class="st7" d="M481.1,192c0.8-1.5,0.4-3.2-0.7-3.9c-1.2-0.7-2.7,0-3.5,1.5c-0.8,1.5-0.4,3.2,0.7,3.9
			C478.8,194.1,480.3,193.5,481.1,192z"/>
		<path class="st10" d="M528.2,225.4l-58-1.1c-0.9,0-1.7-0.9-1.6-1.9l1.4-13.9c0.1-0.9,0.8-1.5,1.6-1.5l58.4-2c1,0,1.8,0.9,1.7,2
			l-1.9,16.9C529.8,224.7,529,225.4,528.2,225.4z"/>
		<path class="st24" d="M485.2,212.9l38.4-0.5"/>
		<path class="st24" d="M484.6,218.2h20.7"/>
		<path class="st7" d="M478.6,216.8c0.7-1.5,0.3-3.2-0.8-3.8c-1.1-0.6-2.6,0.2-3.3,1.7c-0.7,1.5-0.3,3.2,0.8,3.8
			C476.4,219.1,477.9,218.3,478.6,216.8z"/>
		<path class="st9" d="M525,253.7l-57.3-5.2c-0.9-0.1-1.6-1-1.5-1.9l1.4-13.8c0.1-0.9,0.8-1.6,1.7-1.5l57.7,2.2c0.9,0,1.7,0.9,1.6,2
			l-1.9,16.7C526.7,253.1,525.8,253.7,525,253.7z"/>
		<path class="st24" d="M482.6,238.1l37.9,2.2"/>
		<path class="st24" d="M482,243.3l20.5,1.5"/>
		<path class="st7" d="M476.1,240.9c0.6-1.6,0.2-3.2-1-3.8c-1.2-0.5-2.6,0.3-3.2,1.9c-0.6,1.6-0.2,3.2,1,3.8
			C474.1,243.2,475.5,242.4,476.1,240.9z"/>
	</g>
</g>
</svg>
