<?xml version="1.0" encoding="utf-8"?>
<!-- Generator: Adobe Illustrator 27.3.1, SVG Export Plug-In . SVG Version: 6.00 Build 0)  -->
<svg version="1.1" id="Layer_1" xmlns="http://www.w3.org/2000/svg" xmlns:xlink="http://www.w3.org/1999/xlink" x="0px" y="0px"
	 viewBox="0 0 1000 600" style="enable-background:new 0 0 1000 600;" xml:space="preserve">
<style type="text/css">
	.st0{clip-path:url(#SVGID_00000082328265439630193060000016911740171484440475_);}
	.st1{fill:#EAF9F3;}
	.st2{fill:#FFFFFF;filter:url(#Adobe_OpacityMaskFilter);}
	.st3{mask:url(#mask0_7_8_00000154417375836210386690000001259423723471264175_);}
	.st4{fill:none;stroke:#B8D8C7;stroke-width:1.8;stroke-linecap:round;stroke-linejoin:round;}
	.st5{fill:#B8D8C7;}
	.st6{fill:#63737A;}
	.st7{fill:#22272E;}
	.st8{fill:#6DAFA7;}
	.st9{fill:#FFE779;}
	.st10{fill:#F4C2C9;}
	.st11{fill:none;stroke:#63737A;stroke-width:1.8;stroke-linecap:round;stroke-linejoin:round;}
	.st12{fill:#282828;}
	.st13{fill:none;stroke:#282828;stroke-width:1.8;stroke-linecap:round;stroke-linejoin:round;}
	.st14{fill:#F8AB5D;}
	.st15{fill:none;stroke:#6DAFA7;stroke-width:1.8;stroke-linecap:round;stroke-linejoin:round;}
	.st16{fill:#A97C50;}
	.st17{fill:#8B5E3C;}
	.st18{fill:none;stroke:#FFFFFF;stroke-width:1.8;stroke-linecap:round;stroke-linejoin:round;}
	.st19{fill:#FFFFFF;filter:url(#Adobe_OpacityMaskFilter_00000176736604266549363860000016583310076331638145_);}
	.st20{mask:url(#mask1_7_8_00000092452685898362054580000016939490263988274335_);}
	.st21{fill:none;stroke:#F8AB5D;stroke-width:1.8;stroke-linecap:round;stroke-linejoin:round;}
	.st22{fill:#754C29;}
	.st23{fill:none;stroke:#F4C2C9;stroke-width:1.8;stroke-linecap:round;stroke-linejoin:round;}
	.st24{fill:none;stroke:#22272E;stroke-width:1.8;stroke-linecap:round;stroke-linejoin:round;}
	.st25{fill:#FFFFFF;}
	.st26{fill:none;stroke:#8B5E3C;stroke-width:1.8;stroke-linecap:round;stroke-linejoin:round;}
</style>
<g>
	<defs>
		<rect id="SVGID_1_" x="128" y="80.8" width="1031.9" height="483.5"/>
	</defs>
	<clipPath id="SVGID_00000124156575258304326440000009317980620711037848_">
		<use xlink:href="#SVGID_1_"  style="overflow:visible;"/>
	</clipPath>
	<g style="clip-path:url(#SVGID_00000124156575258304326440000009317980620711037848_);">
		<path class="st1" d="M858.2,485.7l-440-13.4c-20.5-0.6-37.3-17.3-39.4-38.9l-21.2-223.1c-2.4-25.3,16.1-47.3,39.9-47.7l489.8-7.2
			c24.7-0.4,44.1,22.6,41,48.7l-28.5,243.7C897.2,470,879.2,486.5,858.2,485.7z"/>
		<defs>
			<filter id="Adobe_OpacityMaskFilter" filterUnits="userSpaceOnUse" x="127.8" y="194.5" width="1032.2" height="352.7">
				<feColorMatrix  type="matrix" values="1 0 0 0 0  0 1 0 0 0  0 0 1 0 0  0 0 0 1 0"/>
			</filter>
		</defs>
		
			<mask maskUnits="userSpaceOnUse" x="127.8" y="194.5" width="1032.2" height="352.7" id="mask0_7_8_00000154417375836210386690000001259423723471264175_">
			<path class="st2" d="M858.2,485.7l-440-13.4c-20.5-0.6-37.3-17.3-39.4-38.9l-21.2-223.1c-2.4-25.3,16.1-47.3,39.9-47.7l489.8-7.2
				c24.7-0.4,44.1,22.6,41,48.7l-28.5,243.7C897.2,470,879.2,486.5,858.2,485.7z"/>
		</mask>
		<g class="st3">
			<path class="st4" d="M794.8,546.3h351.6c7,0,12.7-6,12.7-13.5V320.9c0-7.5-5.7-13.5-12.7-13.5H794.8c-7,0-12.7,6-12.7,13.5v211.9
				C782.1,540.2,787.9,546.3,794.8,546.3z"/>
			<path class="st4" d="M330.1,532.1h354.7c7,0,12.7-6,12.7-13.5V208.9c0-7.5-5.7-13.5-12.7-13.5H330.1c-7,0-12.7,6-12.7,13.5v309.7
				C317.4,526,323.2,532.1,330.1,532.1z"/>
			<path class="st4" d="M813.9,307.3h17.2c1.9,0,3.4-1.4,3.6-3.4l1.3-13c0.3-2.2-1.4-4.3-3.6-4.3h-19.9c-2.2,0-3.8,2-3.6,4.3l1.4,13
				C810.6,305.9,812.1,307.3,813.9,307.3z"/>
			<path class="st5" d="M824.5,286.7c0,0,6.8-0.7,8.1-10.4c0,0-6.1,1.9-8,6.5c0,0-0.8-10.3-5.4-11.2c0,0-2,7.6,1.2,11.4
				c0,0-2.5-4.3-8.7-4.2c0,0,1.6,6.1,7.8,7.9"/>
			<path class="st4" d="M402.9,289.6h17.2c1.9,0,3.4-1.4,3.6-3.4l1.4-13c0.3-2.2-1.4-4.3-3.6-4.3h-19.9c-2.2,0-3.8,2-3.6,4.3l1.4,13
				C399.4,288,401.1,289.6,402.9,289.6z"/>
			<path class="st5" d="M413.5,268.9c0,0,6.8-0.7,8.1-10.4c0,0-6.1,1.9-8,6.5c0,0-0.8-10.3-5.4-11.2c0,0-2,7.6,1.2,11.4
				c0,0-2.5-4.3-8.7-4.2c0,0,1.6,6.1,7.8,7.9"/>
			<path class="st4" d="M797.5,352.1h76.3c1.9,0,3.6-1.7,3.6-3.8v-24.7c0-2.1-1.6-3.8-3.6-3.8h-76.3c-1.9,0-3.6,1.7-3.6,3.8v24.6
				C794,350.4,795.6,352.1,797.5,352.1z"/>
			<path class="st5" d="M826.9,328.6h17.6c0.7,0,1.3-0.6,1.3-1.3c0-0.7-0.6-1.3-1.3-1.3h-17.6c-0.7,0-1.3,0.6-1.3,1.3
				C825.6,328,826.2,328.6,826.9,328.6z"/>
			<path class="st4" d="M797.5,393.3h76.3c1.9,0,3.6-1.7,3.6-3.8v-24.6c0-2.1-1.6-3.8-3.6-3.8h-76.3c-1.9,0-3.6,1.7-3.6,3.8v24.6
				C794,391.6,795.6,393.3,797.5,393.3z"/>
			<path class="st5" d="M826.9,369.8h17.6c0.7,0,1.3-0.6,1.3-1.3c0-0.7-0.6-1.3-1.3-1.3h-17.6c-0.7,0-1.3,0.6-1.3,1.3
				C825.6,369.2,826.2,369.8,826.9,369.8z"/>
			<path class="st4" d="M405.5,422.4h76.3c1.9,0,3.6-1.7,3.6-3.8V394c0-2.1-1.6-3.8-3.6-3.8h-76.3c-1.9,0-3.6,1.7-3.6,3.8v24.6
				C402,420.7,403.6,422.4,405.5,422.4z"/>
			<path class="st5" d="M435,398.9h17.6c0.7,0,1.3-0.6,1.3-1.3c0-0.7-0.6-1.3-1.3-1.3H435c-0.7,0-1.3,0.6-1.3,1.3
				C433.7,398.3,434.2,398.9,435,398.9z"/>
			<path class="st4" d="M503.5,422.4h76.3c1.9,0,3.6-1.7,3.6-3.8V394c0-2.1-1.6-3.8-3.6-3.8h-76.3c-1.9,0-3.6,1.7-3.6,3.8v24.6
				C500,420.7,501.6,422.4,503.5,422.4z"/>
			<path class="st5" d="M533,398.9h17.6c0.7,0,1.3-0.6,1.3-1.3c0-0.7-0.6-1.3-1.3-1.3H533c-0.7,0-1.3,0.6-1.3,1.3
				C531.7,398.3,532.2,398.9,533,398.9z"/>
			<path class="st4" d="M894.8,352.1h76.3c1.9,0,3.6-1.7,3.6-3.8v-24.7c0-2.1-1.6-3.8-3.6-3.8h-76.3c-1.9,0-3.6,1.7-3.6,3.8v24.6
				C891.3,350.4,892.9,352.1,894.8,352.1z"/>
			<path class="st5" d="M924.2,328.6h17.6c0.7,0,1.3-0.6,1.3-1.3c0-0.7-0.6-1.3-1.3-1.3h-17.6c-0.7,0-1.3,0.6-1.3,1.3
				C922.9,328,923.5,328.6,924.2,328.6z"/>
			<path class="st4" d="M894.8,393.3h76.3c1.9,0,3.6-1.7,3.6-3.8v-24.6c0-2.1-1.6-3.8-3.6-3.8h-76.3c-1.9,0-3.6,1.7-3.6,3.8v24.6
				C891.3,391.6,892.9,393.3,894.8,393.3z"/>
			<path class="st5" d="M924.2,369.8h17.6c0.7,0,1.3-0.6,1.3-1.3c0-0.7-0.6-1.3-1.3-1.3h-17.6c-0.7,0-1.3,0.6-1.3,1.3
				C922.9,369.2,923.5,369.8,924.2,369.8z"/>
			<path class="st4" d="M294.4,289.7h385c2.1,0,3.9-1.9,3.9-4.1v-71.7c0-2.2-1.8-4.1-3.9-4.1h-385c-2.1,0-3.9,1.9-3.9,4.1v71.7
				C290.5,287.9,292.3,289.7,294.4,289.7z"/>
			<path class="st4" d="M294.4,378.7h385c2.1,0,3.9-1.9,3.9-4.1v-71.7c0-2.2-1.8-4.1-3.9-4.1h-385c-2.1,0-3.9,1.9-3.9,4.1v71.7
				C290.5,376.8,292.3,378.7,294.4,378.7z"/>
			<path class="st4" d="M657.5,244.5h-8.4v45.2h8.4V244.5z"/>
			<path class="st4" d="M649.1,256.7h-8.7v32.9h8.7V256.7z"/>
			<path class="st4" d="M405,333.3h-8.4v45.2h8.4V333.3z"/>
			<path class="st4" d="M396.6,345.6h-8.7v32.9h8.7V345.6z"/>
			<path class="st4" d="M422,333.3h-8.4v45.2h8.4V333.3z"/>
			<path class="st4" d="M429.8,332.4l-8,2.7l12.8,43.1l8-2.7L429.8,332.4z"/>
			<path class="st4" d="M413.7,345.6h-8.7v32.9h8.7V345.6z"/>
			<path class="st5" d="M582,250.4L581,237c-0.1-0.9,0.6-1.6,1.4-1.6h7.3c0.8,0,1.4,0.7,1.4,1.6l-0.9,13.4c0,0,7.6,5.2,7.5,9.5
				c-0.1,3.3-1.9,19.2-2.8,26.3c-0.3,2-1.8,3.4-3.6,3.4h-10.5c-1.9,0-3.4-1.4-3.6-3.4c-0.8-7-2.7-22.9-2.8-26.3
				C574.4,255.6,582,250.4,582,250.4z"/>
			<path class="st5" d="M544.6,250.4l-0.9-13.4c-0.1-0.9,0.6-1.6,1.4-1.6h7.3c0.8,0,1.4,0.7,1.4,1.6l-0.9,13.4c0,0,7.6,5.2,7.5,9.5
				c-0.1,3.3-1.9,19.2-2.8,26.3c-0.3,2-1.8,3.4-3.6,3.4h-10.5c-1.9,0-3.4-1.4-3.6-3.4c-0.8-7-2.7-22.9-2.8-26.3
				C537,255.6,544.6,250.4,544.6,250.4z"/>
			<path class="st4" d="M918.2,463.6H128.7"/>
		</g>
		<path class="st4" d="M568.4,378.7H498c-2.3,0-4.1-2-4.1-4.4v-11.8c0-2.4,1.9-4.4,4.1-4.4h70.4c2.3,0,4.1,2,4.1,4.4v11.8
			C572.6,376.7,570.7,378.7,568.4,378.7z"/>
		<path class="st4" d="M558.5,339.1h-50.8V358h50.8V339.1z"/>
		<path class="st5" d="M501.8,366.3c0.7,0,1.3-0.6,1.3-1.3c0-0.7-0.6-1.3-1.3-1.3c-0.7,0-1.3,0.6-1.3,1.3
			C500.6,365.7,501.1,366.3,501.8,366.3z"/>
		<path class="st6" d="M577.2,358.5l35.7-14.1c1.4-0.5,2.3-2,2.3-3.5l-70.9-5.4l10.9,20.9l18.4,2.6
			C574.9,359.1,576.1,358.9,577.2,358.5z"/>
		<path class="st7" d="M487.4,344.7l-6.4-53.3c-0.2-1.5,1-2.8,2.4-2.7l85.8,6.5c1.3,0.1,2.3,1.2,2.4,2.5l5.1,58.7
			c0.2,1.5-1.1,2.8-2.5,2.6l-84.5-11.9C488.4,346.9,487.5,345.9,487.4,344.7z"/>
		<path class="st7" d="M615.2,340.9c0,1.6-0.9,3-2.3,3.5l-35.7,14.1c-0.8,0.4-1.9,0.5-2.8,0.4c-1.4-1.1-2.2-2.8-2.2-2.8L615.2,340.9
			z"/>
		<path class="st6" d="M528.4,327c2.3-1.8,2.5-5.5,0.6-8.3c-1.9-2.8-5.3-3.6-7.6-1.9c-2.3,1.8-2.5,5.5-0.6,8.3
			S526.1,328.8,528.4,327z"/>
		<path class="st6" d="M572.3,248.9l-143,23c-3.2,0.5-6.1-2-6.3-5.4l-8.5-136.9c-0.3-3.8,2.7-6.9,6.3-6.7l143.3,9.7
			c2.7,0.2,4.9,2.4,5.2,5.3l8.2,104.2C577.6,245.4,575.4,248.4,572.3,248.9z"/>
		<path class="st7" d="M576.2,248.7l-143.7,23.1c-3.2,0.5-6.1-2-6.3-5.4l-8.6-137.5c-0.3-3.8,2.7-7,6.3-6.7l143.9,9.7
			c2.7,0.2,4.9,2.4,5.2,5.4l8.3,104.7C581.6,245.3,579.4,248.3,576.2,248.7z"/>
		<path class="st8" d="M482.5,201.6l-40.5,2.3c-1.3,0.1-2.4-1-2.5-2.3l-2.4-36.3c-0.1-1.4,1-2.7,2.4-2.7l40.5,0.3
			c1.3,0,2.3,1,2.4,2.3l2.4,33.7C484.9,200.4,483.9,201.5,482.5,201.6z"/>
		<path class="st9" d="M526,187.6l-33.8,1.3c-1.3,0.1-2.4-1-2.5-2.3l-1.4-21c-0.1-1.4,1-2.7,2.4-2.7l33.8,0.3c1.2,0,2.2,1,2.4,2.3
			l1.4,19.4C528.4,186.3,527.4,187.6,526,187.6z"/>
		<path class="st10" d="M564.4,186.2l-28.5,1.1c-1.3,0.1-2.4-1-2.5-2.3l-1.4-19c-0.1-1.4,1-2.7,2.4-2.7l28.5,0.2
			c1.2,0,2.2,1,2.4,2.3l1.4,17.7C566.7,184.9,565.7,186.1,564.4,186.2z"/>
		<path class="st11" d="M485.1,236.9l-40.5,4.7c-1.4,0.2-2.5-0.9-2.6-2.3l-1.5-23.5c-0.1-1.3,0.9-2.6,2.2-2.7l40.5-2.9
			c1.3-0.1,2.5,0.9,2.5,2.3l1.5,21.7C487.3,235.5,486.4,236.7,485.1,236.9z"/>
		<path class="st10" d="M529.9,236l-33.8,4.2c-1.4,0.2-2.5-0.9-2.6-2.3l-2.7-38.8c-0.1-1.4,0.9-2.6,2.2-2.7l33.8-1.7
			c1.3-0.1,2.4,1,2.5,2.3l2.7,36.2C532.1,234.6,531.1,235.8,529.9,236z"/>
		<path class="st8" d="M522.8,201.4l-24.3,1.5c-0.6,0-1,0.5-0.9,1.2l1.1,16c0.1,0.6,0.5,1.1,1.1,1l24.3-2.2c0.6-0.1,1-0.5,0.9-1.2
			l-1.1-15.3C523.8,201.9,523.3,201.4,522.8,201.4z"/>
		<path class="st9" d="M567.8,227.1l-28.5,3.3c-1.4,0.2-2.5-0.9-2.6-2.3l-2.3-31.2c-0.1-1.4,0.9-2.6,2.2-2.7l28.5-1.4
			c1.3-0.1,2.4,1,2.5,2.3l2.3,29.3C570,225.7,569,226.9,567.8,227.1z"/>
		<path class="st11" d="M464.4,222l0.5,6.7"/>
		<path class="st11" d="M461.7,225.6l5.9-0.5"/>
		<path class="st12" d="M505,229.4c-0.2-1.8-1.4-3.2-3-3.1c-1.5,0.2-2.7,1.8-2.5,3.7c0.2,1.9,1.5,3.2,3,3.1
			C504,232.8,505.1,231.2,505,229.4z"/>
		<path class="st13" d="M509.9,228.9l15.8-1.7"/>
		<path class="st8" d="M545.1,202.6c-0.2-1.7-1.3-3-2.6-3c-1.4,0.1-2.3,1.5-2.2,3.2c0.2,1.7,1.3,3.1,2.6,3
			C544.3,205.8,545.3,204.3,545.1,202.6z"/>
		<path class="st13" d="M549.4,202.3l13.6-0.9"/>
		<path class="st8" d="M545.8,212.2c-0.2-1.7-1.3-3-2.6-2.9c-1.4,0.1-2.3,1.6-2.2,3.3c0.2,1.7,1.4,3.1,2.6,2.9
			C545,215.4,546,213.9,545.8,212.2z"/>
		<path class="st13" d="M550.1,211.9l13.7-1.2"/>
		<path class="st8" d="M546.6,221.9c-0.2-1.7-1.3-3-2.6-2.9c-1.4,0.1-2.3,1.6-2.2,3.3c0.2,1.7,1.4,3,2.6,2.9
			C545.8,225,546.7,223.6,546.6,221.9z"/>
		<path class="st13" d="M550.8,221.4l13.6-1.4"/>
		<path class="st9" d="M451.4,177.2l-5.5,0.1c-0.5,0-0.9-0.4-1-1l-0.4-6.1c0-0.6,0.4-1.1,1-1.1h5.5c0.5,0,0.9,0.4,1,1l0.4,6
			C452.3,176.6,451.9,177.2,451.4,177.2z"/>
		<path class="st13" d="M457.3,169.1l19-0.1"/>
		<path class="st13" d="M457.7,174.3l19-0.2"/>
		<path class="st12" d="M542.7,175.7l-4.3,0.1c-0.3,0-0.5-0.3-0.6-0.5l-0.4-5.8c0-0.4,0.3-0.6,0.6-0.6h4.3c0.3,0,0.5,0.3,0.6,0.5
			l0.4,5.8C543.3,175.4,543.1,175.7,542.7,175.7z"/>
		<path class="st13" d="M546.8,168.7h14.1"/>
		<path class="st13" d="M547.2,173.3l14-0.2"/>
		<path class="st13" d="M538.2,180.7l23.5-0.6"/>
		<path class="st9" d="M452.3,191.1l-5.5,0.2c-0.5,0-1-0.4-1-1l-0.4-6.1c0-0.6,0.4-1.1,0.9-1.1l5.5-0.2c0.5,0,0.9,0.5,1,1l0.4,6
			C453.3,190.6,452.8,191.1,452.3,191.1z"/>
		<path class="st13" d="M458.3,182.8l19-0.5"/>
		<path class="st13" d="M458.6,188.1l19-0.6"/>
		<path class="st8" d="M466.2,147.6l-28.5-0.9c-0.9,0-1.7-0.8-1.8-1.8l-0.3-4.8c-0.1-1.2,0.8-2.2,1.9-2.1l28.5,1.3
			c0.9,0,1.7,0.8,1.8,1.8l0.3,4.4C468.2,146.6,467.3,147.6,466.2,147.6z"/>
		<path class="st13" d="M495.1,168.9l26.9-0.1"/>
		<path class="st13" d="M495.4,173.9l26.9-0.4"/>
		<path class="st13" d="M495.9,181.8l14.5-0.4"/>
		<path class="st6" d="M563.5,147.1c-0.1-1.3-1-2.5-2.1-2.6c-1-0.1-1.9,1.1-1.7,2.4c0.1,1.4,1,2.6,2.1,2.6
			C562.9,149.6,563.6,148.5,563.5,147.1z"/>
		<path class="st6" d="M556,146.8c-0.1-1.4-1.1-2.6-2.1-2.6c-1.1-0.1-1.9,1.1-1.8,2.5c0.1,1.4,1.1,2.6,2.2,2.6
			C555.3,149.4,556.1,148.2,556,146.8z"/>
		<path class="st6" d="M548.2,146.5c-0.1-1.4-1.1-2.6-2.2-2.7c-1.1-0.1-1.9,1.1-1.9,2.5c0.1,1.4,1.1,2.6,2.2,2.7
			C547.5,149.1,548.3,147.9,548.2,146.5z"/>
		<path class="st14" d="M597.9,158.9l-37.6-0.7c-1.5,0-2.8-1.3-2.9-2.9l-3.4-44c-0.1-1.5,1.1-2.7,2.5-2.6l37.7,4.2
			c1.4,0.2,2.5,1.3,2.6,2.9l3.3,40.4C600.3,157.7,599.2,158.9,597.9,158.9z"/>
		<path class="st9" d="M599.9,158.2l-37.6-0.7c-1.5,0-2.8-1.3-2.9-2.9l-3.4-44c-0.1-1.5,1.1-2.7,2.5-2.6l37.7,4.2
			c1.4,0.2,2.5,1.3,2.6,2.9l3.3,40.4C602.3,157,601.2,158.2,599.9,158.2z"/>
		<path class="st11" d="M572.5,116.2l19.9,2"/>
		<path class="st11" d="M572.8,120.5l19.9,1.8"/>
		<path class="st11" d="M573.6,130.4l20,1.4"/>
		<path class="st11" d="M573.9,134.6l19.9,1.3"/>
		<path class="st11" d="M574.8,144.6l19.9,0.9"/>
		<path class="st11" d="M575.1,148.8l19.9,0.7"/>
		<path class="st15" d="M565.6,118.6l1,1.3l1.4-2.1"/>
		<path class="st15" d="M566.7,133l1,1.3l1.5-2.1"/>
		<path class="st15" d="M567.8,147.1l1.1,1.3l1.4-2.2"/>
		<path class="st16" d="M615.7,222.1c0,0-5.2,11.6-5.7,19c-0.4,7.4,6.9,37,19,59.5c0,0,11.3-4,11.3-7.6c0-3.7-6.7-47.3-6.3-48.6
			c0.4-1.3,5.1-10.5,5.1-14.5C639.2,226.1,617.5,217.8,615.7,222.1z"/>
		<path class="st17" d="M639.2,229.9c0-4-21.6-12.1-23.4-7.8c0,0-0.7,1.6-1.6,4c6.9,5.7,14.2,10.5,22.6,12.1
			C638,235.3,639.2,231.9,639.2,229.9z"/>
		<path class="st8" d="M638.3,172.8c0,0-8.5,3.1-14.9,18.5c-6.5,15.6-13.3,28.4-13.3,28.4s10.6,11.2,24.1,16.8
			C647.7,242.4,648.2,174.3,638.3,172.8z"/>
		<path class="st13" d="M612.4,215.2c0,0,14.5,12.6,27.9,18.1"/>
		<path class="st16" d="M666.5,508.3c0,0-0.8,18.9-0.6,20.7c0.2,1.9-5.9,5.7-13.5,5.4c-7.4-0.3-8.2-2.6-8.2-2.6s-1.7-20.4-1.9-23.3
			C642.2,505.6,665,504.4,666.5,508.3z"/>
		<path class="st7" d="M666.1,519.2c0.2-5.4,0.4-10.9,0.4-10.9c-1.5-3.9-24.3-2.7-24.1,0.2c0.1,1.3,0.5,6.4,0.8,11.4
			C649.9,523.4,658.7,522.5,666.1,519.2z"/>
		<path class="st7" d="M665.9,528.5c0,0,0.7,5.3,0.9,11.1c0.3,5.8,1.1,16.3,0.2,18.1c-1,1.8-6.1,3.3-18.2,4.3
			c-12.1,1-23.3,0.1-25.2-1.5c-1.9-1.6-1.4-4,0.5-5.9c1.9-1.9,9.2-10.3,12.3-13.7c4-4.5,6.9-9.1,6.9-9.6c0.3-2.2,0.7-2.2,0.7-2.2
			s0.5,1.3,1.2,1.3c0.7-0.1,1.6-4.1,5.7-3.1c4.1,1,5.8,4,7.3,4C659.6,531,663.7,530.4,665.9,528.5z"/>
		<path class="st16" d="M698.3,512.1c0,0,2.3,19.4,2.7,20.6c0.4,1.2,4.7,4.4,11.3,4c6.6-0.4,9.1-2.4,9.4-2.9
			c0.3-0.5-0.2-22.7-0.3-24.1C721.1,508.3,699.8,508.7,698.3,512.1z"/>
		<path class="st7" d="M721.5,519.7c-0.1-4.9-0.3-9.5-0.3-10.2c-0.3-1.4-21.4-1-23,2.4c0,0,0.5,4.3,1.1,9
			C706.9,522.9,714.5,522.3,721.5,519.7z"/>
		<path class="st7" d="M700.6,531c-0.2,1.4-0.3,2.8-0.2,4.2c0.1,1.2,0.2,2.8,0.2,4.8c0.1,4.1,0.4,18.4,1.4,20.5
			c0.9,2.1,11.6,3.8,19.6,3.9c8,0.1,14-2.2,14.9-4.5c0.9-2.3,0.4-5.8-2.4-9.5c-2.8-3.8-9.2-9.6-10-12.4c-0.8-2.8-1.9-6-2.5-6.9
			c0,0-1.1,1.6-2.3,2c-1.1,0.4-2.7-4.5-6.2-4.7c-3.5-0.3-5,1.3-7.2,4.7C706,533,702.9,533.2,700.6,531z"/>
		<path class="st7" d="M626.4,277.5c0,0-2,9.8-3,23c-1,13.2,2.5,95.2,3,101.5c0.5,6.4,2.5,42.8,4.7,60.5c1.8,14.6,0.5,44,4.7,48.1
			c4.1,4.1,16.8,6.4,24.7,4.1c7.9-2.2,11.5-6.4,12.4-9.8c0.9-3.4-2.8-29.4-2.5-42.6c0.3-13.2,0-52.3-0.4-61.5c0,0,3.5-47.3,7.6-58.1
			c4.1-10.8,10.2-50.5-1.4-62.1C664.5,269.3,627.4,275.6,626.4,277.5z"/>
		<path class="st7" d="M644.9,282.7c0,0-0.1,17.8,0.6,31.1c0.3,5,0.7,9.4,1.3,12.1c2.1,9.4,6.7,10.1,10.2,12.2
			c3.5,2.2,15.9,55.1,21,68.9c0,0,3.9,31.7,6.9,50.5c3,18.9,2.5,41.7,4.8,49.6c2.3,7.8,15.7,9.4,22.2,8.7c6.5-0.6,15.2-3.3,15-11.4
			c-0.3-8.1-1.5-31.1-2.6-50.7c-1.2-19.6-3.2-48.8-3.7-55.7c0,0-2.5-32.4-3.9-49c-1.4-16.6-0.6-33.6-2.6-62.3
			C711.8,257.9,644.9,266.7,644.9,282.7z"/>
		<path class="st11" d="M645.5,313.9c0.3,5,0.7,9.4,1.3,12.1c2.1,9.4,6.7,10.1,10.2,12.2c3.5,2.2,15.9,55.1,21,68.9"/>
		<path class="st11" d="M657,338.1c0,0-9.9-5.4-14.3-3.4"/>
		<path class="st11" d="M646.7,521.3c0,0-0.2-1.9,0-2.7"/>
		<path class="st11" d="M653.7,522.4v-3.9"/>
		<path class="st11" d="M662.3,520.6c0,0,0.1-2.2,0-3.2"/>
		<path class="st11" d="M702.9,521.8c0,0-0.4-2.4-0.4-3.1"/>
		<path class="st11" d="M711.4,522.2c0,0,0.2-3.1,0-3.9"/>
		<path class="st11" d="M718.6,520.7c0,0,0.2-2.1,0-3.1"/>
		<path class="st18" d="M638.8,539.4c0,0,6.4-5.5,19,2.1"/>
		<path class="st18" d="M633.9,546.4c0,0,8-6.7,19.8,1.4"/>
		<path class="st18" d="M726.1,543.4c0,0-7.7-3.6-18.1,2.2"/>
		<path class="st18" d="M729.6,549.5c0,0-8.9-4.1-19.6,3.3"/>
		<path class="st9" d="M679.2,169.7c0,0,4.2,1.3,13.2,1.5c9,0.2,19.2,3,23.2,8.3c4,5.3,5.2,44.4,4.7,62.1
			c-0.6,17.6-12.5,44.1-12.5,44.1s-28.5,3.4-51.9,2.2c-23.4-1.3-28.9-6.7-30.5-8.4c-1.6-1.7-2.5-5.8-1.6-7.6
			c0.9-1.7,5.5-15.7,7.2-29.1c1.6-13.5-1.9-32.1-0.3-48.6c1.6-16.5,7.6-21.3,7.6-21.3s7.5-2.7,20.6-3.1
			C671.8,169.1,679.2,169.7,679.2,169.7z"/>
		<defs>
			
				<filter id="Adobe_OpacityMaskFilter_00000000187105213514294590000008755242216182940346_" filterUnits="userSpaceOnUse" x="630.7" y="158" width="93.4" height="140.5">
				<feColorMatrix  type="matrix" values="1 0 0 0 0  0 1 0 0 0  0 0 1 0 0  0 0 0 1 0"/>
			</filter>
		</defs>
		
			<mask maskUnits="userSpaceOnUse" x="630.7" y="158" width="93.4" height="140.5" id="mask1_7_8_00000092452685898362054580000016939490263988274335_">
			<path style="fill:#FFFFFF;filter:url(#Adobe_OpacityMaskFilter_00000000187105213514294590000008755242216182940346_);" d="
				M679.2,169.7c0,0,4.2,1.3,13.2,1.5c9,0.2,19.2,3,23.2,8.3c4,5.3,5.2,44.4,4.7,62.1c-0.6,17.6-12.5,44.1-12.5,44.1
				s-28.5,3.4-51.9,2.2c-23.4-1.3-28.9-6.7-30.5-8.4c-1.6-1.7-2.5-5.8-1.6-7.6c0.9-1.7,5.5-15.7,7.2-29.1
				c1.6-13.5-1.9-32.1-0.3-48.6c1.6-16.5,7.6-21.3,7.6-21.3s7.5-2.7,20.6-3.1C671.8,169.1,679.2,169.7,679.2,169.7z"/>
		</mask>
		<g class="st20">
			<path class="st21" d="M645.7,166.1c0,0-10.9,17.8-7.4,55.3c3.5,37.5-11.8,56.8-4.8,74.1"/>
			<path class="st21" d="M704.7,169.4c0,0-13.3,2.3-16.6,26.2c-3.3,23.8,5.4,55.7,3.8,73.6c-1.6,17.9-6.1,28.4-6.1,28.4"/>
			<path class="st21" d="M706.1,291.8c0,0,4.5-44.9,0-69.7c-4.5-24.8,5.7-46.4,17.1-43.4"/>
			<path class="st21" d="M666.9,293.7c0,0,3.7-29.1,2.5-55.2c-0.5-9.8-5.8-57.9,13.9-73.1"/>
			<path class="st21" d="M645.7,291.8c0,0,5.8-36.7,5.5-58.3c-0.3-21.6-2-67.3,8.2-74.7"/>
		</g>
		<path class="st14" d="M677.9,217.1c3,0,5.5-2.6,5.5-5.8c0-3.2-2.5-5.8-5.5-5.8s-5.5,2.6-5.5,5.8
			C672.4,214.5,674.9,217.1,677.9,217.1z"/>
		<path class="st8" d="M659.5,166.3c-2.3,0.1-4.1,1.5-5.7,3.2c-1,1.1-1.9,2.5-2.4,4.4c-3.2,16.5,1.7,36.5,8,36.3
			c7.9-0.3,18.4-15.5,26.7-32.7c3.4-7.1-3.1-12.1-6.9-12.1C676.3,165.4,664.2,166,659.5,166.3z"/>
		<path class="st16" d="M657.7,158.6c0,0-0.9,8.7-1.5,12.1c-0.6,3.3-1.9,12.1,8.5,12.6c9.4,0.5,14.5-7.2,16.3-11
			c0.6-1.2,0.8-2.4,0.8-3.7c-0.3-4-0.8-13.7-0.5-21.6C681.7,136.9,657.7,151.5,657.7,158.6z"/>
		<path class="st22" d="M676.3,159.3c-5,4.2-12.4,6.2-19.3,5.1c-0.3,2.3-0.6,4.9-0.8,6.3c-0.1,0.5-0.2,1-0.3,1.6
			C664.5,172.7,674.2,168.2,676.3,159.3z"/>
		<path class="st16" d="M649.7,131.4c0,0,0.3,6.3-0.8,13.5c-1.1,7.2-1.9,18,8.2,21c10.1,3,21.9-1.1,25.6-15.8
			c3.7-14.8,6.4-29.7-6.4-34C663.4,111.7,648.2,117.2,649.7,131.4z"/>
		<path class="st7" d="M654,138.6c0.3,1,0.2,2.2-0.2,3.2c-0.2,0.5-0.4,1-0.8,1.4c-0.2,0.3-0.3,0.4-0.5,0.6c-0.1,0.1-0.2,0.3-0.3,0.4
			c-0.1,0.3-0.1,0.5,0,0.8c0.1,0.4,0.3,0.7,0.6,1.1c0.5,0.7,1.3,1.3,2,1.9c-1,0.1-2-0.3-2.9-1c-0.4-0.4-0.8-0.8-1.1-1.4
			c-0.3-0.6-0.3-1.4,0-2.1c0.2-0.4,0.3-0.6,0.6-0.8c0.2-0.2,0.3-0.3,0.4-0.4c0.3-0.4,0.6-0.7,0.8-1.1
			C653.2,140.4,653.7,139.6,654,138.6z"/>
		<path class="st7" d="M664.3,134.2c-0.3-0.7-0.5-2.1,0.4-2.8c0.9-0.7,3-0.4,5.1,0.9c1.8,1.2,2.3,3.1,1.1,2.9
			c-1.2-0.2-2.1-0.7-3.6-0.8C665.8,134.3,664.6,134.9,664.3,134.2z"/>
		<path class="st7" d="M654.2,133.3c0.2-0.6,0.3-1.8-0.3-2.6c-0.5-0.7-1.9-0.6-3.1,0.4c-1.1,0.9-1.4,2.6-0.7,2.5
			c0.8-0.1,1.3-0.4,2.2-0.4C653.2,133.3,654,133.8,654.2,133.3z"/>
		<path class="st7" d="M648.3,149.4c0,0-0.1,1.1,1.4,1.3c1.4,0.2,1.6-2.1,4.1-2.4c1.5-0.2,6.9,0.3,9.1,2.4c2.2,2.2,5.2,4.7,9.6,3.2
			c4.4-1.4,7-8,7.9-17.5c0.8-8.7,3.8-0.3,3.8,1.8c0,1.4-1.3-0.6-2.8,5.2c-0.7,2.6,0,10-2.6,15.4c-2,4.1-7.7,8.4-14.9,8.9
			c-7.2,0.5-13.1-2.6-14.9-7.6C647.1,155.3,647.8,149.8,648.3,149.4z"/>
		<path class="st7" d="M651.8,140c0.7,0.1,1.3-0.4,1.4-1.2l0.1-0.7c0.1-0.7-0.4-1.3-1.1-1.4c-0.7-0.1-1.3,0.4-1.4,1.2l-0.1,0.7
			C650.6,139.3,651.1,139.9,651.8,140z"/>
		<path class="st7" d="M665.2,140.9c0.7,0.1,1.3-0.4,1.4-1.2l0.1-0.7c0.1-0.7-0.4-1.3-1.1-1.4c-0.7-0.1-1.3,0.4-1.4,1.2l-0.1,0.7
			C664.1,140.3,664.6,140.9,665.2,140.9z"/>
		<path class="st16" d="M681.2,143.5c0,0,2.3-5.4,6.3-4.8c4.1,0.7,2,12.1-5.3,12"/>
		<path class="st7" d="M687.3,142.8c-0.3-0.3-0.5-0.5-0.7-0.6c-0.3-0.1-0.2,0.1-0.3,0.2c0,0.1-0.2,0.8-0.3,1.4
			c-0.1,0.6-0.3,1.3-0.6,2c-0.2,0.4-0.3,0.7-0.7,1c-0.3,0.3-0.8,0.4-1.1,0.2c0.3-0.2,0.4-0.5,0.5-0.7s0.1-0.5,0.2-0.8
			c0.1-0.6,0.1-1.3,0.3-2c0.1-0.4,0.2-0.7,0.3-1.1c0.1-0.2,0.2-0.4,0.3-0.5c0.1-0.1,0.1-0.2,0.3-0.3c0.1-0.1,0.3-0.2,0.3-0.3
			c0.2-0.1,0.4-0.2,0.8-0.2c0.3,0.1,0.5,0.3,0.7,0.4C687.3,142,687.3,142.4,687.3,142.8z"/>
		<path class="st23" d="M657.7,154.5c0,0,2.3,1.1,4.6,0.6"/>
		<path class="st24" d="M653.6,137.4c0.4-4.5-1.5-8.4-4.3-8.7c-2.8-0.3-5.4,3.1-5.8,7.6c-0.4,4.5,1.5,8.4,4.3,8.7
			C650.6,145.3,653.2,141.9,653.6,137.4z"/>
		<path class="st24" d="M672.4,139.2c0.4-4.5-2.2-8.4-5.8-8.8c-3.6-0.4-6.8,3-7.2,7.5c-0.4,4.5,2.2,8.4,5.8,8.8
			C668.8,147,672,143.7,672.4,139.2z"/>
		<path class="st24" d="M653.4,138.7c0,0,1.4-2.9,6,0.5"/>
		<path class="st24" d="M672.4,139.2l9.6,2.2"/>
		<path class="st16" d="M709,238.5l4.5,9.6c0,0-4.7,6.8-9.8,19.8c-5.1,13-8.8,29-12.3,33.5c0,0,3.4,8.6,11.7,12.4
			c0,0,16.2-25.2,23.5-36.2c7.4-11,14.4-25,13.9-32c-0.8-10.3-8.1-25.6-8.8-29.8C731,211.8,709.2,226.5,709,238.5z"/>
		<path class="st17" d="M731.6,215.9c-0.6-4-22.4,10.6-22.6,22.6l0.7,1.3c7.7-6.2,16.3-10.4,25.6-13.4
			C733.5,221.8,731.8,217.7,731.6,215.9z"/>
		<path class="st7" d="M695.6,292.1c1.2,2.2,5.2,7.9,14.7,10.3c0.3,0.1,0.4,0.5,0.3,0.7l-4.3,6.2c-0.1,0.2-0.3,0.2-0.5,0.2
			c-10.6-3.4-13.4-9.1-13.8-10.2c-0.1-0.1-0.1-0.3,0-0.4l2.9-6.7C695,291.7,695.5,291.7,695.6,292.1z"/>
		<path class="st25" d="M701.6,303.1c1.2-2,0.6-4.7-1.2-5.8c-1.8-1.2-4.3-0.5-5.4,1.5c-1.2,2-0.6,4.7,1.2,5.8
			C698,305.8,700.5,305.1,701.6,303.1z"/>
		<path class="st8" d="M711.5,178.8c2-0.4,4.1,0.5,5.3,2.2c1.9,2.6,5.2,7.6,9.1,16.3c6.7,14.5,11.3,24,11.3,24s-23.2,13.3-28.3,17.3
			c0,0-9.4-16.8-12.4-23.8C693.6,208,694.4,182.1,711.5,178.8z"/>
		<path class="st13" d="M706.1,233.3c0,0,12.7-10.1,28.5-17.4"/>
		<path class="st11" d="M688.1,295.5c0,0,4,15.7,20.3,21.2"/>
		<path class="st26" d="M713.5,248.1c0,0,2.2-3.1,6.9-4.2"/>
		<path class="st6" d="M838.9,270.6l-74.9-9.8c-2.5-0.4-4.1-2.6-3.9-5.2l8-79c0.3-3.1,2.5-5.5,5.4-5.9l77.5-11.2
			c2.9-0.4,5.4,2.2,5.1,5.3L844.6,266C844.2,268.9,841.7,271,838.9,270.6z"/>
		<path class="st7" d="M836.4,270.3l-74.9-9.9c-2.5-0.4-4.1-2.6-3.9-5.2l8-79c0.3-3.1,2.5-5.5,5.4-5.9l77.5-11.2
			c2.9-0.5,5.4,2.2,5.1,5.3L842,265.7C841.7,268.5,839.2,270.7,836.4,270.3z"/>
		<path class="st8" d="M833.6,196.9l-58.6,3.1c-1,0.1-1.9-0.9-1.7-1.9l1.4-13.9c0.1-0.8,0.7-1.4,1.4-1.5l59.2-6.2
			c1-0.1,1.9,0.8,1.8,2l-1.9,17.1C835.1,196.2,834.4,196.8,833.6,196.9z"/>
		<path class="st24" d="M789.9,187.6l38.8-3.3"/>
		<path class="st24" d="M789.4,192.9l20.9-1.5"/>
		<path class="st7" d="M783.2,192c0.8-1.5,0.4-3.2-0.7-3.9c-1.2-0.7-2.7,0-3.5,1.5c-0.8,1.5-0.4,3.2,0.7,3.9
			C780.9,194.1,782.4,193.5,783.2,192z"/>
		<path class="st10" d="M830.3,225.4l-58-1.1c-0.9,0-1.7-0.9-1.6-1.9l1.4-13.9c0.1-0.9,0.8-1.5,1.6-1.5l58.4-2c1,0,1.8,0.9,1.7,2
			L832,224C831.9,224.7,831.1,225.4,830.3,225.4z"/>
		<path class="st24" d="M787.3,212.9l38.4-0.5"/>
		<path class="st24" d="M786.7,218.2h20.7"/>
		<path class="st7" d="M780.7,216.8c0.7-1.5,0.3-3.2-0.8-3.8c-1.1-0.6-2.6,0.2-3.3,1.7c-0.7,1.5-0.3,3.2,0.8,3.8
			C778.5,219.1,780,218.3,780.7,216.8z"/>
		<path class="st9" d="M827,253.7l-57.3-5.2c-0.9-0.1-1.6-1-1.5-1.9l1.4-13.8c0.1-0.9,0.8-1.6,1.7-1.5l57.7,2.2c0.9,0,1.7,0.9,1.6,2
			l-1.9,16.7C828.7,253.1,827.9,253.7,827,253.7z"/>
		<path class="st24" d="M784.7,238.1l37.9,2.2"/>
		<path class="st24" d="M784.1,243.3l20.5,1.5"/>
		<path class="st7" d="M778.2,240.9c0.6-1.6,0.2-3.2-1-3.8c-1.2-0.5-2.6,0.3-3.2,1.9c-0.6,1.6-0.2,3.2,1,3.8
			C776.1,243.2,777.6,242.4,778.2,240.9z"/>
	</g>
</g>
</svg>
